<?xml version="1.0" encoding="UTF-8"?>
<svg width="35px" height="41px" viewBox="0 0 35 41" version="1.1" xmlns="http://www.w3.org/2000/svg" xmlns:xlink="http://www.w3.org/1999/xlink">
    <!-- Generator: Sketch 52.2 (67145) - http://www.bohemiancoding.com/sketch -->
    <title>分组 2</title>
    <desc>Created with Sketch.</desc>
    <g id="Page-3" stroke="none" stroke-width="1" fill="none" fill-rule="evenodd">
        <g id="网页logo替换" transform="translate(-540.000000, -152.000000)" fill="#26C6DA">
            <g id="分组-2" transform="translate(540.000000, 152.000000)">
                <g id="分组-6" transform="translate(0.000000, 10.000000)">
                    <g id="分组">
                        <path d="M17.6410316,5.9032834 L12.70188,5.9032834 C10.8094447,5.9032834 9.14778505,7.12370277 8.63467922,8.89047193 L6.99229705,14.5456603 C6.95614048,14.6701576 7.03088396,14.7995119 7.15924127,14.8345812 C7.18054599,14.840402 7.2025747,14.8433538 7.22470852,14.8433538 L13.9998525,14.8433538 C14.133205,14.8433538 14.2413086,14.9482065 14.2413086,15.0775488 C14.2413086,15.0994891 14.2381299,15.1213205 14.2318657,15.1424028 L12.7294348,20.3771937 C12.6996377,20.4774768 12.6050219,20.5465347 12.4974215,20.5465347 L2.72881768,20.5465347 C1.39529239,20.5465347 0.314256544,19.498008 0.314256544,18.2045847 C0.314256544,17.9904587 0.344532909,17.7773442 0.404239394,17.5711979 L3.61296951,6.49253991 C4.72499041,2.65310849 8.33466585,1.07342626e-13 12.446367,1.13686838e-13 L24.6817654,1.13686838e-13 C25.2151755,1.13582834e-13 25.6475899,0.419410683 25.6475899,0.93677998 C25.6475899,1.02130009 25.6357968,1.10543144 25.6125319,1.18688359 L19.2540601,23.4482746 C17.9996143,27.8401643 13.7016734,30.7455461 9.01930753,30.3669047 C10.2425686,29.7536162 11.4019399,27.9871056 12.4974215,25.0673729 C12.89132,23.783228 14.7220188,17.5441953 17.989518,6.35027466 C18.0440107,6.16359825 17.9321608,5.96942151 17.739696,5.91656928 C17.7075957,5.9077543 17.6743936,5.9032834 17.6410316,5.9032834 Z" id="Combined-Shape"></path>
                        <path d="M30.680278,0 L33.9008888,0 C34.0310015,-2.66341382e-17 34.1364788,0.107406436 34.1364788,0.23989899 C34.1364788,0.262003174 34.1334787,0.284001304 34.1275637,0.305269035 L28.7864456,18.7153992 C28.3556844,20.2642321 26.9671557,21.3333333 25.3863217,21.3333333 L22.2671476,21.3333333 C22.1370348,21.3333333 22.0315576,21.2259269 22.0315576,21.0934343 C22.0315576,21.0717534 22.0344439,21.0501725 22.0401376,21.0292811 L27.2751287,2.63618624 C27.6997187,1.07828731 29.0925373,1.94429209e-15 30.680278,0 Z" id="Rectangle-4" fill-rule="nonzero"></path>
                    </g>
                </g>
            </g>
        </g>
    </g>
</svg>