<?xml version="1.0" encoding="UTF-8"?>
<svg width="16px" height="16px" viewBox="0 0 16 16" version="1.1" xmlns="http://www.w3.org/2000/svg" xmlns:xlink="http://www.w3.org/1999/xlink">
    <!-- Generator: Sketch 52.1 (67048) - http://www.bohemiancoding.com/sketch -->
    <title>分组</title>
    <desc>Created with Sketch.</desc>
    <g id="Page-3" stroke="none" stroke-width="1" fill="none" fill-rule="evenodd">
        <g id="BPM-小logo" fill="#26C6DA">
            <g id="分组">
                <g id="分组-2" transform="translate(0.000000, 1.000000)">
                    <path d="M7.64876295,3.17997209 L5.72815968,3.17997209 C5.14708084,3.17997209 4.6347709,3.56093166 4.46766376,4.11729136 L3.85851067,6.14538087 L6.20250473,6.14538087 L5.29015176,9.23484887 L0.524919787,9.23484887 C0.292325296,9.23484887 0.103770206,9.04635214 0.103770206,8.81382964 C0.103770206,8.77533557 0.109051033,8.73702335 0.119465083,8.69996383 L1.75488811,2.88013481 C2.23340668,1.17727493 3.78670189,0.000571529109 5.55602596,0.000571529109 L11.0891184,0.000571529109 C11.3217129,0.000571529109 11.510268,0.189068258 11.510268,0.421590756 C11.510268,0.459576828 11.5051257,0.497388178 11.4949809,0.533995411 L8.86248357,10.03334 C8.23262091,12.3061941 6.08604995,13.8190417 3.73303705,13.6484409 C4.26644236,13.3728091 4.77198842,12.5788821 5.24967523,11.2666598 C5.42370833,10.6818863 6.22340424,7.98632374 7.64876295,3.17997209 Z" id="Combined-Shape"></path>
                    <path d="M14.1011317,0.000571529109 L15.6184192,0.000571529109 C15.6767092,0.000571529109 15.7239625,0.0476802923 15.7239625,0.105791897 C15.7239625,0.115486854 15.7226185,0.125135295 15.7199686,0.134463381 L13.5719231,7.69597774 C13.3090698,8.62126963 12.4617806,9.25996388 11.4971455,9.25996388 L10.0054823,9.25996388 C9.94719228,9.25996388 9.89993892,9.21285511 9.89993892,9.15474351 C9.89993892,9.14523418 9.90123197,9.13576873 9.90378274,9.12660572 L12.0011823,1.59221628 C12.2630261,0.651606843 13.1219749,0.000571529109 14.1011317,0.000571529109 Z" id="Rectangle-4" fill-rule="nonzero"></path>
                </g>
            </g>
        </g>
    </g>
</svg>