<?xml version="1.0" encoding="UTF-8"?>
<svg width="64px" height="64px" viewBox="0 0 64 64" version="1.1" xmlns="http://www.w3.org/2000/svg" xmlns:xlink="http://www.w3.org/1999/xlink">
    <!-- Generator: Sketch 50.2 (55047) - http://www.bohemiancoding.com/sketch -->
    <title>cooperation</title>
    <desc>Created with Sketch.</desc>
    <defs>
        <linearGradient x1="92.4332221%" y1="100%" x2="15.2061002%" y2="13.725125%" id="linearGradient-1">
            <stop stop-color="#26C6DA" offset="0%"></stop>
            <stop stop-color="#50EAE7" offset="100%"></stop>
        </linearGradient>
    </defs>
    <g id="扶뒬못" stroke="none" stroke-width="1" fill="none" fill-rule="evenodd">
        <g id="BPM扶뒬못-copy-2" transform="translate(-522.000000, -1044.000000)">
            <g id="cooperation" transform="translate(522.000000, 1044.000000)">
                <rect id="Rectangle-4" fill-opacity="0.01" fill="#D8D8D8" x="0" y="0" width="64" height="64"></rect>
                <path d="M53.0050549,22.2725858 C53.0254053,22.6440819 53.0357143,23.018226 53.0357143,23.3947568 C53.0357143,31.7467125 47.9345001,39.2054145 40.1858262,42.3132513 L43.1450247,56.9973457 C43.2620694,57.618822 42.8726051,58.2403742 42.2495839,58.3571429 L42.0157988,58.3571429 C41.4706553,58.3571429 40.9644506,57.968521 40.8865729,57.4247387 L37.7325282,41.7693932 C37.6157877,41.186688 37.9273744,40.6428298 38.5114568,40.4483672 C45.8318036,37.923539 50.7380955,31.0863892 50.7380955,23.3947568 C50.7380955,13.4497702 42.5998812,5.33074481 32.5538166,5.33074481 C22.5463867,5.33074481 14.3693096,13.4109232 14.3693096,23.3947568 C14.3693096,31.0863892 19.2755254,37.923539 26.5961765,40.4483672 C27.14132,40.6428298 27.4915413,41.225535 27.3748009,41.7693932 L24.2207561,57.4247387 C24.1040157,58.046215 23.4809945,58.473608 22.8580494,58.3182958 C22.2350282,58.2015272 21.8066251,57.579975 21.9623043,56.9584987 L24.9218071,42.2744043 C17.2117677,39.1665675 12.071919,31.7078655 12.071919,23.3559098 C12.0686079,22.8781199 12.0820815,22.4041295 12.1117906,21.9344806 C6.83782233,23.2265124 3.1950708,28.092656 3.1950708,33.7400019 C3.1950708,38.922601 6.37824144,43.5717049 11.0976544,45.2864364 C11.6098542,45.476896 11.9392685,46.0484235 11.829297,46.5819187 L9.70732616,57.4806121 C9.63422621,57.9760004 9.15861205,58.3571429 8.64641219,58.3571429 C8.57324078,58.3571429 8.50014083,58.3571429 8.42704088,58.3191105 C7.84138379,58.2045668 7.43915541,57.594858 7.58542677,56.9852237 L9.52454055,47.0392747 C4.36595625,44.791048 1,39.5703422 1,33.7400019 C1,26.9569917 5.46352738,21.1266515 11.829297,19.6407096 C12.0206319,19.5908081 12.212005,19.5979498 12.3880518,19.6528007 C14.0910585,10.1886748 22.459752,3 32.5148778,3 C42.5675862,3 50.9847086,10.23476 52.711561,19.7711405 C58.7884267,21.4869986 63,27.1292854 63,33.7039972 C63,39.5248612 59.6308069,44.7750524 54.5031611,47.019625 L56.4443045,56.9494086 C56.5543911,57.5580521 56.1880796,58.1667699 55.6020956,58.2811274 C55.4920091,58.3571429 55.4188326,58.3571429 55.3455846,58.3571429 C54.8328486,58.3571429 54.3567367,57.9766199 54.2835602,57.4439918 L52.1593684,46.5630866 C52.0495679,45.9924137 52.3424168,45.4597856 52.8917768,45.2696356 C57.616487,43.5576911 60.8026317,38.9541883 60.8026317,33.742042 C60.8026317,28.5150553 57.6688684,23.9903525 53.0050549,22.2725858 Z" id="Combined-Shape" stroke="url(#linearGradient-1)" fill="url(#linearGradient-1)"></path>
            </g>
        </g>
    </g>
</svg>