<?xml version="1.0" encoding="UTF-8"?>
<svg width="64px" height="64px" viewBox="0 0 64 64" version="1.1" xmlns="http://www.w3.org/2000/svg" xmlns:xlink="http://www.w3.org/1999/xlink">
    <!-- Generator: Sketch 50.2 (55047) - http://www.bohemiancoding.com/sketch -->
    <title>data</title>
    <desc>Created with Sketch.</desc>
    <defs>
        <linearGradient x1="92.4332221%" y1="100%" x2="15.2061002%" y2="13.725125%" id="linearGradient-1">
            <stop stop-color="#26C6DA" offset="0%"></stop>
            <stop stop-color="#50EAE7" offset="100%"></stop>
        </linearGradient>
    </defs>
    <g id="扶뒬못" stroke="none" stroke-width="1" fill="none" fill-rule="evenodd">
        <g id="BPM扶뒬못-copy-2" transform="translate(-926.000000, -1044.000000)">
            <g id="data" transform="translate(926.000000, 1044.000000)">
                <rect id="Rectangle-7" fill-opacity="0.01" fill="#D8D8D8" x="0" y="0" width="64" height="64"></rect>
                <path d="M22.7606096,22.5249598 L22.7605056,22.5250476 C22.3971602,22.8315615 22.1875,23.2827263 22.1875,23.7580901 L22.1875,55.6702555 C22.1875,56.1456193 22.3971602,56.5967841 22.7605056,56.9032981 L22.7606096,56.9033858 C23.0915206,57.1825384 23.5754707,57.1825014 23.906339,56.9032981 L23.906339,56.9032981 C24.2695783,56.5967784 24.4791667,56.1456779 24.4791667,55.6703916 L24.4791667,23.757954 C24.4791667,23.2826677 24.2695783,22.8315672 23.906339,22.5250476 L23.906339,22.5250476 C23.5754707,22.2458442 23.0915206,22.2458072 22.7606096,22.5249598 Z M5.57310959,35.663874 L5.57300565,35.6639617 C5.20965346,35.9705766 5,36.4218172 5,36.8972513 L5,56.1377433 C5,56.613107 5.20966024,57.0642718 5.57300565,57.3707858 L5.57310962,57.3708735 C5.90402064,57.6500262 6.3879707,57.6499891 6.71883898,57.3707858 L6.71883898,57.3707858 C7.08207832,57.0642661 7.29166667,56.6131656 7.29166667,56.1378793 L7.29166667,36.8971153 C7.29166667,36.4217586 7.08208509,35.9705823 6.71883898,35.6639617 L6.71883898,35.6639617 C6.38799493,35.3846921 5.9039964,35.384655 5.57310959,35.663874 Z M58.2805382,25.9625476 L58.2805382,25.9625476 C57.9176701,26.2690872 57.7083333,26.7199626 57.7083333,27.1949782 L57.7083333,56.4473885 C57.7083333,56.9224041 57.9176701,57.3732795 58.2805382,57.6798191 L58.2805382,57.6798191 C58.6110467,57.9590224 59.0946894,57.9593186 59.4255396,57.6805202 L59.4263716,57.6798191 C59.7900882,57.3733252 60,56.9219351 60,56.4463005 L60,27.1960662 C60,26.7204316 59.7900882,26.2690415 59.4263716,25.9625476 L59.4255396,25.9618465 C59.0946894,25.6830481 58.6110467,25.6833443 58.2805382,25.9625476 Z M59.6914647,13.2331221 L59.6189702,6.95559068 C59.6163299,6.68752547 59.4999314,6.43237545 59.3004019,6.25051161 C59.1009478,6.07007444 58.838127,5.98237131 58.5645942,6.0029455 L52.2804318,6.53291867 C51.745587,6.57782147 51.3492436,7.04479557 51.3931476,7.57717156 C51.4385604,8.10954756 51.9165261,8.49257294 52.4436764,8.46028498 L56.2632528,8.13793093 L42.7220666,20.9798069 C41.9829846,21.6807203 40.8351933,21.7142025 40.0565101,21.0575638 L24.6109488,8.03281309 C23.8714014,7.40917627 22.7915105,7.40425615 22.0463111,8.02112828 L5.34715879,21.8445997 C4.9508154,22.2056993 4.92365826,22.8166927 5.28613066,23.2111315 C5.6489048,23.6056454 6.26295793,23.6314758 6.65786803,23.271878 L22.3091994,10.8728932 C23.0540169,10.2828488 24.1111736,10.2983257 24.838399,10.909921 L40.0312794,23.6871063 C40.808756,24.3409628 41.9529016,24.3081017 42.6915686,23.6107001 L57.704769,9.43620752 L57.747466,13.2548227 C57.7539536,13.7848709 58.1865819,14.210171 58.7202197,14.210171 C59.2653993,14.2037134 59.6967453,13.7666245 59.6914647,13.2331221 Z M41.093943,35.4207932 L41.093839,35.4208809 C40.7304936,35.7273948 40.5208333,36.1785597 40.5208333,36.6539234 L40.5208333,55.9320564 C40.5208333,56.4074201 40.7304936,56.858585 41.093839,57.1650989 L41.093943,57.1651866 C41.424854,57.4443393 41.908804,57.4443022 42.2396723,57.1650989 L42.2396723,57.1650989 C42.6029117,56.8585792 42.8125,56.4074788 42.8125,55.9321924 L42.8125,36.6537874 C42.8125,36.178501 42.6029117,35.7274006 42.2396723,35.4208809 L42.2396723,35.4208809 C41.908804,35.1416775 41.424854,35.1416405 41.093943,35.4207932 Z" id="Fill-1" stroke="url(#linearGradient-1)" fill="url(#linearGradient-1)"></path>
            </g>
        </g>
    </g>
</svg>