<?xml version="1.0" encoding="UTF-8"?>
<svg width="64px" height="64px" viewBox="0 0 64 64" version="1.1" xmlns="http://www.w3.org/2000/svg" xmlns:xlink="http://www.w3.org/1999/xlink">
    <!-- Generator: Sketch 50.2 (55047) - http://www.bohemiancoding.com/sketch -->
    <title>Process</title>
    <desc>Created with Sketch.</desc>
    <defs>
        <linearGradient x1="92.4332221%" y1="100%" x2="15.2061002%" y2="13.725125%" id="linearGradient-1">
            <stop stop-color="#26C6DA" offset="0%"></stop>
            <stop stop-color="#50EAE7" offset="100%"></stop>
        </linearGradient>
    </defs>
    <g id="扶뒬못" stroke="none" stroke-width="1" fill="none" fill-rule="evenodd">
        <g id="BPM扶뒬못-copy-2" transform="translate(-1332.000000, -1044.000000)">
            <g id="Process" transform="translate(1332.000000, 1044.000000)">
                <path d="M29.64763,47.0850291 L14.1665387,47.0850291 C13.4976724,47.0850291 12.9555556,46.5571453 12.9555556,45.9062545 C12.9555556,45.2549492 13.4976724,44.7270654 14.1665387,44.7270654 L29.64763,44.7270654 C30.3160705,44.7270654 30.8581874,45.2549492 30.8581874,45.9062545 C30.8581874,46.5571453 30.3160705,47.0850291 29.64763,47.0850291 Z M47.5782388,33.2323565 L33.1665387,33.2323565 C32.4976724,33.2323565 31.9555556,32.7044727 31.9555556,32.0531674 C31.9555556,31.4022766 32.4976724,30.8743928 33.1665387,30.8743928 L47.5782388,30.8743928 C48.247105,30.8743928 48.7892219,31.4022766 48.7892219,32.0531674 C48.7892219,32.7044727 48.247105,33.2323565 47.5782388,33.2323565 Z M31.1345374,58.2323565 L48.6992413,58.2323565 L48.6992413,55.8743928 L31.1345374,55.8743928 C30.4834037,55.8743928 29.9555556,56.402241 29.9555556,57.0533746 L29.9555556,57.0533746 C29.9555556,57.7045083 30.4834037,58.2323565 31.1345374,58.2323565 Z M30.4468529,14.3585069 C27.1901075,14.3585069 24.5504006,11.7876903 24.5504006,8.61644987 C24.5504006,5.44531311 27.1901075,2.87439282 30.4468529,2.87439282 C33.7039175,2.87439282 36.3437308,5.44531311 36.3437308,8.61644987 C36.3371326,11.7847887 33.701044,14.352082 30.4468529,14.3585069 Z M30.4468529,5.23235647 C29.0413292,5.23235647 27.7742613,6.05692872 27.236295,7.32150771 C26.6983286,8.58608671 26.9959927,10.0413422 27.9895543,11.0092327 C28.9835417,11.9771232 30.4784604,12.2665577 31.77671,11.7427155 C33.0753854,11.2188732 33.9221903,9.98507192 33.9221903,8.61644987 C33.9221903,6.74750926 32.366185,5.23235647 30.4468529,5.23235647 Z" id="Fill-1" stroke="url(#linearGradient-1)" fill="url(#linearGradient-1)"></path>
                <path d="M51.9271579,62.7324715 C49.5962298,62.7324715 47.4948582,61.3116715 46.6026359,59.1327959 C45.7108297,56.9534994 46.2036426,54.4453139 47.8520383,52.7774 C49.50033,51.1095914 51.9791643,50.610838 54.1329584,51.5132038 C56.2864405,52.4160959 57.6906141,54.5423493 57.6906141,56.9012981 C57.6840613,60.1190416 55.1077669,62.7259463 51.9271579,62.7324715 Z M51.9271579,53.4644357 C50.5534601,53.4644357 49.3150831,54.3018657 48.7894021,55.5861636 C48.2636172,56.8700405 48.5545411,58.3484091 49.5256051,59.3313922 C50.4969811,60.3139543 51.9580497,60.6082177 53.2273185,60.0763123 C54.4962753,59.5443017 55.3239056,58.2912614 55.3239056,56.9012981 C55.3239056,55.0032147 53.8031337,53.4644357 51.9271579,53.4644357 Z M52,37.6588459 C48.8166866,37.6588459 46.2366478,35.0482576 46.2366478,31.8272515 C46.2366478,28.6065612 48.8166866,25.9960782 52,25.9960782 C55.1830013,25.9960782 57.7630401,28.6065612 57.7630401,31.8272515 C57.7564873,35.045416 55.180089,37.6523207 52,37.6588459 Z M52,28.3908101 C50.1241282,28.3908101 48.6033563,29.9295891 48.6033563,31.8272515 C48.6033563,33.725335 50.1241282,35.2641139 52,35.2641139 C53.8755598,35.2641139 55.3963317,33.725335 55.3963317,31.8272515 C55.3963317,29.9295891 53.8755598,28.3908101 52,28.3908101 Z M29.4536442,57.9796525 L31.8203526,57.9796525 L31.8203526,12.9555556 L29.4536442,12.9555556 L29.4536442,57.9796525 Z M8.76335219,51.2259064 C5.58045487,51.2259064 3,48.6154234 3,45.3943121 C3,42.1736218 5.58045487,39.5631387 8.76335219,39.5631387 C11.9463535,39.5631387 14.5267044,42.1736218 14.5267044,45.3943121 C14.5202556,48.6124765 11.9434412,51.2193813 8.76335219,51.2259064 Z M8.76335219,41.9578707 C7.38965444,41.9578707 6.15127741,42.7953007 5.62549244,44.0791776 C5.09981148,45.3634755 5.39021536,46.8418441 6.36169541,47.8244062 C7.33317546,48.8073892 8.79382795,49.101337 10.0630968,48.5697473 C11.3323656,48.0377367 12.1595799,46.7846964 12.1595799,45.3943121 C12.1595799,43.4966496 10.639224,41.9578707 8.76335219,41.9578707 Z" id="Fill-2" stroke="url(#linearGradient-1)" fill="url(#linearGradient-1)"></path>
                <rect id="Rectangle-7" fill-opacity="0.01" fill="#D8D8D8" x="0" y="0" width="64" height="64"></rect>
            </g>
        </g>
    </g>
</svg>